<?xml version="1.0" encoding="UTF-8" standalone="no"?>
<svg
   xmlns:dc="http://purl.org/dc/elements/1.1/"
   xmlns:cc="http://creativecommons.org/ns#"
   xmlns:rdf="http://www.w3.org/1999/02/22-rdf-syntax-ns#"
   xmlns:svg="http://www.w3.org/2000/svg"
   xmlns="http://www.w3.org/2000/svg"
   xmlns:xlink="http://www.w3.org/1999/xlink"
   height="920.22687"
   width="1668.9591"
   version="1.1"
   viewBox="0 0 1668.9591 920.22684"
   id="svg2">
  <defs
     id="defs17486">
    <linearGradient
       id="linearGradient18210">
      <stop
         id="stop18212"
         offset="0"
         style="stop-color:#404959;stop-opacity:1;" />
      <stop
         id="stop18214"
         offset="1"
         style="stop-color:#404959;stop-opacity:0;" />
    </linearGradient>
    <linearGradient
       id="linearGradient18200">
      <stop
         id="stop18202"
         offset="0"
         style="stop-color:#3a4351;stop-opacity:1;" />
      <stop
         id="stop18204"
         offset="1"
         style="stop-color:#3a4351;stop-opacity:0;" />
    </linearGradient>
    <linearGradient
       gradientUnits="userSpaceOnUse"
       y2="-77.048264"
       x2="350.75674"
       y1="-77.048264"
       x1="-1151.5955"
       id="linearGradient18206"
       xlink:href="#linearGradient18200" />
    <linearGradient
       gradientUnits="userSpaceOnUse"
       y2="239.92836"
       x2="86.638062"
       y1="239.92836"
       x1="-1148.9557"
       id="linearGradient18216"
       xlink:href="#linearGradient18210" />
  </defs>
  <g
     transform="translate(1208.2246,0.24543979)"
     id="layer1">
    <g
       transform="translate(-7.704,192.6)"
       id="g3681">
      <g
         transform="matrix(1.486,-0.3118,0.22305,1.8329,-484.86,-312.98)"
         style="fill:#ffffff"
         id="text3646" />
      <g
         transform="matrix(0.99857363,-0.05424952,0.05233303,1.0351425,-50.841787,-3.3235303)"
         id="g18028">
        <g
           id="g18284">
          <path
             style="fill:#525b6c;fill-opacity:1;fill-rule:evenodd;stroke:#000000;stroke-width:8.84009266;stroke-linecap:round;stroke-linejoin:round;stroke-miterlimit:4;stroke-dasharray:none;stroke-opacity:1"
             d="M -869.10879,-221.66685 -1144.6097,6.6785254 -1162.5469,348.94065 -896.473,174.75935 Z"
             id="path18119" />
          <rect
             ry="15.232526"
             transform="matrix(0.99862953,0.05233596,-0.05233596,0.99862953,0,0)"
             y="-177.48691"
             x="-880.04712"
             height="347.38974"
             width="1226.7537"
             id="rect18115"
             style="opacity:1;fill:#525b6c;fill-opacity:1;stroke:#000000;stroke-width:8.84009266;stroke-linecap:round;stroke-linejoin:round;stroke-miterlimit:4;stroke-dasharray:none;stroke-dashoffset:0;stroke-opacity:1" />
          <rect
             style="opacity:1;fill:#525b6c;fill-opacity:1;stroke:#000000;stroke-width:8.84009266;stroke-linecap:round;stroke-linejoin:round;stroke-miterlimit:4;stroke-dasharray:none;stroke-dashoffset:0;stroke-opacity:1"
             id="rect18064"
             width="1226.7537"
             height="347.38974"
             x="-1144.5356"
             y="66.23349"
             transform="matrix(0.99862953,0.05233596,-0.05233596,0.99862953,0,0)"
             ry="15.232526" />
          <rect
             ry="15.232526"
             transform="matrix(0.99862953,0.05233596,-0.05233596,0.99862953,0,0)"
             y="66.23349"
             x="-1144.5356"
             height="347.38974"
             width="1226.7537"
             id="rect18208"
             style="opacity:1;fill:url(#linearGradient18216);fill-opacity:1;stroke:#000000;stroke-width:8.84009266;stroke-linecap:round;stroke-linejoin:round;stroke-miterlimit:4;stroke-dasharray:none;stroke-dashoffset:0;stroke-opacity:1" />
          <rect
             ry="0"
             transform="matrix(0.99862953,0.05233596,-0.05233596,0.99862953,0,0)"
             y="302.67776"
             x="-1000.5782"
             height="82.509514"
             width="107.90078"
             id="rect18178"
             style="opacity:1;fill:#474d57;fill-opacity:1;stroke:#000000;stroke-width:8.8184824;stroke-linecap:round;stroke-linejoin:round;stroke-miterlimit:4;stroke-dasharray:none;stroke-dashoffset:0;stroke-opacity:1" />
          <path
             style="fill:#525b6c;fill-opacity:1;fill-rule:evenodd;stroke:#000000;stroke-width:8.81848335;stroke-linecap:round;stroke-linejoin:round;stroke-miterlimit:4;stroke-dasharray:none;stroke-opacity:1"
             d="M 349.04197,-157.83674 72.06647,72.982399 62.240511,410.59727 332.34538,185.7739 Z"
             id="path18117" />
          <path
             style="fill:#525b6c;fill-opacity:1;fill-rule:evenodd;stroke:#000000;stroke-width:8.73279285;stroke-linecap:round;stroke-linejoin:round;stroke-miterlimit:4;stroke-dasharray:none;stroke-opacity:1"
             d="M -871.48874,-224.38815 -1147.2297,5.3496861 68.16361,70.291618 346.39106,-156.82418 Z"
             id="path18121" />
          <rect
             style="opacity:1;fill:#474d57;fill-opacity:1;stroke:#000000;stroke-width:9.91965771;stroke-linecap:round;stroke-linejoin:round;stroke-miterlimit:4;stroke-dasharray:none;stroke-dashoffset:0;stroke-opacity:1"
             id="rect18123"
             width="623.92468"
             height="106.78645"
             x="-956.59955"
             y="142.02216"
             transform="matrix(0.99862953,0.05233596,-0.05233596,0.99862953,0,0)"
             ry="17.411757" />
          <g
             transform="matrix(0.87865793,0.04604851,-0.04301145,0.82070725,-8.1960189,56.57859)"
             style="font-style:normal;font-variant:normal;font-weight:normal;font-stretch:normal;font-size:54.75455093px;line-height:125%;font-family:serif;-inkscape-font-specification:serif;letter-spacing:0px;word-spacing:0px;fill:#3d2727;fill-opacity:1;stroke:none;stroke-width:1px;stroke-linecap:butt;stroke-linejoin:miter;stroke-opacity:1"
             id="text18125">
            <path
               d="m -251.88359,195.33919 11.70018,-35.15819 4.78382,0 -13.631,40.83537 -5.44664,0 -13.86155,-40.83537 4.78382,0 11.67137,35.15819 z"
               style="font-style:normal;font-variant:normal;font-weight:normal;font-stretch:normal;font-family:'Telugu Sangam MN';-inkscape-font-specification:'Telugu Sangam MN';fill:#3d2727;fill-opacity:1"
               id="path18130" />
            <path
               d="m -227.14633,180.06555 q 0,4.66855 1.21036,8.12673 1.21036,3.42936 3.17,5.706 1.95964,2.24782 4.46682,3.37173 2.50718,1.09509 5.072,1.09509 2.68009,0 4.84145,-0.951 2.16137,-0.97982 3.74637,-2.56482 1.61382,-1.585 2.62245,-3.63109 1.03746,-2.04609 1.46973,-4.17864 l 4.438,0 q -0.60518,3.17 -2.01727,5.93655 -1.38327,2.73773 -3.54464,4.81264 -2.16136,2.04609 -5.072,3.22763 -2.88182,1.18155 -6.48409,1.18155 -4.17864,0 -7.57918,-1.49855 -3.37173,-1.52736 -5.76364,-4.38036 -2.36309,-2.853 -3.65991,-6.974 -1.29682,-4.121 -1.29682,-9.33709 0,-2.6801 0.54755,-5.27373 0.54754,-2.62246 1.61382,-4.95673 1.06627,-2.33427 2.62245,-4.29391 1.585,-1.98845 3.60227,-3.42936 2.01728,-1.44091 4.49564,-2.24782 2.47836,-0.80691 5.36018,-0.80691 3.65991,0 6.51291,0.97982 2.853,0.951 4.98555,2.68009 2.13254,1.70027 3.54464,4.09218 1.4409,2.36309 2.24781,5.15846 l -4.61091,0 q -1.61381,-4.5821 -4.69736,-6.82991 -3.08355,-2.24782 -7.98264,-2.24782 -3.05472,0 -5.61954,1.41209 -2.536,1.38327 -4.38037,3.74636 -1.81554,2.36309 -2.853,5.50428 -1.00863,3.11236 -1.00863,6.57054 z"
               style="font-style:normal;font-variant:normal;font-weight:normal;font-stretch:normal;font-family:'Telugu Sangam MN';-inkscape-font-specification:'Telugu Sangam MN';fill:#3d2727;fill-opacity:1"
               id="path18132" />
            <path
               d="m -160.93498,171.79473 q 0,1.52737 -0.37464,2.99709 -0.34581,1.44091 -1.06627,2.73773 -0.72045,1.29682 -1.81554,2.42073 -1.06628,1.09509 -2.47837,1.87318 1.585,0.40346 2.59364,1.23918 1.00863,0.80691 1.585,1.902 0.57636,1.09509 0.77809,2.39191 0.23054,1.29682 0.23054,2.62246 l 0,6.19591 q 0,1.35445 0.34582,2.59363 0.37464,1.23919 0.951,2.24782 l -4.72618,0 q -0.28818,-0.46109 -0.46109,-1.06627 -0.17291,-0.60518 -0.25936,-1.23918 -0.0865,-0.634 -0.11528,-1.23918 -0.0288,-0.60519 -0.0288,-1.06628 l 0,-6.48409 q 0,-1.18154 -0.40345,-2.33427 -0.40345,-1.15273 -1.29682,-2.04609 -0.89336,-0.92218 -2.33427,-1.46973 -1.41209,-0.57636 -3.45818,-0.57636 l -12.363,0 0,17.52145 -4.35155,0 0,-40.83537 16.71455,0 q 2.96827,0 5.27372,1.03746 2.30546,1.03745 3.86164,2.70891 1.585,1.64264 2.39191,3.71754 0.80691,2.07491 0.80691,4.14982 z m -24.69718,7.86737 12.363,0 q 1.61382,0 3.05472,-0.60518 1.44091,-0.634 2.536,-1.70028 1.0951,-1.06627 1.7291,-2.50718 0.634,-1.44091 0.634,-3.11236 0,-1.64264 -0.60519,-3.02591 -0.60518,-1.38328 -1.67145,-2.39191 -1.03746,-1.03746 -2.50718,-1.61382 -1.44091,-0.57636 -3.17,-0.57636 l -12.363,0 0,15.533 z"
               style="font-style:normal;font-variant:normal;font-weight:normal;font-stretch:normal;font-family:'Telugu Sangam MN';-inkscape-font-specification:'Telugu Sangam MN';fill:#3d2727;fill-opacity:1"
               id="path18134" />
            <path
               d="m -123.34256,182.42864 0,4.17864 -13.16991,0 0,-4.17864 13.16991,0 z"
               style="font-style:normal;font-variant:normal;font-weight:normal;font-stretch:normal;font-family:'Telugu Sangam MN';-inkscape-font-specification:'Telugu Sangam MN';fill:#3d2727;fill-opacity:1"
               id="path18136" />
            <path
               d="m -95.784498,192.05392 q 0.230546,1.09509 0.864546,2.19018 0.662818,1.09509 1.671455,1.95964 1.008636,0.86454 2.334273,1.41209 1.354454,0.51872 2.968273,0.51872 2.017273,0 3.573455,-0.77809 1.556182,-0.77809 2.680091,-2.10372 1.152727,-1.32564 1.930818,-3.05473 0.778091,-1.72909 1.268,-3.63109 0.489909,-1.902 0.691637,-3.83282 0.230545,-1.95964 0.259363,-3.71755 -0.922182,1.70028 -2.219,2.88182 -1.296818,1.18155 -2.708909,1.93082 -1.383273,0.72045 -2.737728,1.06627 -1.354454,0.317 -2.420727,0.317 -2.939455,0 -5.273728,-1.00863 -2.334273,-1.03746 -3.97691,-2.82419 -1.613818,-1.81554 -2.478363,-4.26509 -0.864548,-2.47836 -0.864548,-5.36018 0,-2.59364 0.835729,-4.92791 0.864546,-2.33427 2.478364,-4.09218 1.642637,-1.78673 3.97691,-2.82418 2.334273,-1.03746 5.302546,-1.03746 3.198818,0 5.792455,1.18155 2.622455,1.15272 4.466818,3.45818 1.844364,2.30545 2.824183,5.76364 1.008636,3.42936 1.008636,7.95382 0,5.79245 -1.008636,9.99991 -1.008637,4.20745 -2.881819,6.974 -1.844364,2.73772 -4.495637,4.06336 -2.622455,1.32564 -5.878909,1.32564 -2.651273,0 -4.755001,-0.80691 -2.074909,-0.80691 -3.602273,-2.13255 -1.498546,-1.32563 -2.391909,-3.02591 -0.893364,-1.72909 -1.181546,-3.57345 l 3.948091,0 z m 8.155547,-27.75191 q -1.786728,0 -3.314092,0.74927 -1.527363,0.72045 -2.622454,2.01727 -1.095091,1.268 -1.729091,2.99709 -0.605182,1.72909 -0.605182,3.68873 0,1.93082 0.576363,3.65991 0.605182,1.72909 1.700273,3.05473 1.095091,1.29682 2.593637,2.07491 1.527364,0.77809 3.400546,0.77809 2.190182,0 3.832818,-0.86455 1.642637,-0.89336 2.70891,-2.24782 1.066272,-1.38327 1.585,-3.05472 0.547545,-1.67146 0.547545,-3.28528 0,-2.07491 -0.720454,-3.804 -0.720455,-1.75791 -1.930819,-3.02591 -1.181545,-1.29682 -2.766545,-2.01727 -1.556182,-0.72045 -3.256455,-0.72045 z"
               style="font-style:normal;font-variant:normal;font-weight:normal;font-stretch:normal;font-family:'Telugu Sangam MN';-inkscape-font-specification:'Telugu Sangam MN';fill:#3d2727;fill-opacity:1"
               id="path18138" />
            <path
               d="m -49.684633,201.01637 0,-9.91345 -18.299547,0 0,-4.89909 17.982547,-24.78364 4.438001,0 0,26.25336 5.850091,0 0,3.42937 -5.850091,0 0,9.91345 -4.121001,0 z m -14.697274,-13.34282 14.697274,0 0,-20.66264 -14.697274,20.66264 z"
               style="font-style:normal;font-variant:normal;font-weight:normal;font-stretch:normal;font-family:'Telugu Sangam MN';-inkscape-font-specification:'Telugu Sangam MN';fill:#3d2727;fill-opacity:1"
               id="path18140" />
            <path
               d="m -33.23868,182.14046 2.651273,-20.72027 21.2101837,0 0,3.487 -17.8960927,0 q -0.345818,3.22763 -0.778091,6.28236 -0.432273,3.05473 -0.806909,6.34 1.210364,-0.951 2.507182,-1.46973 1.296818,-0.54754 2.478364,-0.8069 1.210364,-0.25937 2.161364,-0.317 0.979818,-0.0576 1.527363,-0.0576 2.795364,0 5.187274,1.06627 2.391909,1.03746 4.121,2.853 1.7579094,1.78673 2.7377277,4.23628 0.9798183,2.42072 0.9798183,5.18727 0,2.56482 -0.8645456,4.98554 -0.8357273,2.39191 -2.5936364,4.2651 -1.729091,1.87318 -4.380364,2.99709 -2.651273,1.12391 -6.253546,1.12391 -2.39191,0 -4.524455,-0.634 -2.103728,-0.66282 -3.832819,-1.95964 -1.700273,-1.29682 -2.939455,-3.25646 -1.239182,-1.95963 -1.873182,-4.58209 l 4.495637,0 q 0.518727,1.67146 1.412091,2.96828 0.893364,1.29681 2.046091,2.19018 1.152728,0.89336 2.507182,1.35445 1.354455,0.46109 2.766546,0.46109 1.988455,0 3.746364,-0.74927 1.757909,-0.77809 3.083546,-2.10373 1.325636,-1.35445 2.074909,-3.14118 0.778091,-1.81554 0.778091,-3.91927 0,-2.16137 -0.835727,-3.94809 -0.835728,-1.78673 -2.190182,-3.05473 -1.354455,-1.29682 -3.112364,-2.01727 -1.729091,-0.72046 -3.544637,-0.72046 -1.037455,0 -2.161364,0.25937 -1.095091,0.23054 -2.161364,0.72045 -1.037454,0.46109 -1.959636,1.15273 -0.922182,0.66282 -1.613819,1.52736 l -4.149818,0 z"
               style="font-style:normal;font-variant:normal;font-weight:normal;font-stretch:normal;font-family:'Telugu Sangam MN';-inkscape-font-specification:'Telugu Sangam MN';fill:#3d2727;fill-opacity:1"
               id="path18142" />
            <path
               d="m 4.7632899,201.01637 q 0.6916364,-4.87027 1.9596365,-9.56763 1.2680002,-4.69737 3.2276367,-9.22182 1.9884549,-4.52446 4.6973639,-8.84719 2.70891,-4.32272 6.282364,-8.47254 l -22.3629108,0 0,-3.487 27.3772758,0 0,3.28527 q -3.170001,3.97691 -5.850092,7.925 -2.680091,3.91927 -4.812637,8.242 -2.132545,4.29391 -3.659909,9.22182 -1.527364,4.92791 -2.3630913,10.92209 l -4.4956368,0 z"
               style="font-style:normal;font-variant:normal;font-weight:normal;font-stretch:normal;font-family:'Telugu Sangam MN';-inkscape-font-specification:'Telugu Sangam MN';fill:#3d2727;fill-opacity:1"
               id="path18144" />
          </g>
          <rect
             style="opacity:1;fill:#474d57;fill-opacity:1;stroke:#000000;stroke-width:8.8184824;stroke-linecap:round;stroke-linejoin:round;stroke-miterlimit:4;stroke-dasharray:none;stroke-dashoffset:0;stroke-opacity:1"
             id="rect18146"
             width="107.90078"
             height="82.509514"
             x="-1009.7893"
             y="293.79211"
             transform="matrix(0.99862953,0.05233596,-0.05233596,0.99862953,0,0)"
             ry="0" />
          <rect
             style="opacity:1;fill:#474d57;fill-opacity:1;stroke:#000000;stroke-width:8.8184824;stroke-linecap:round;stroke-linejoin:round;stroke-miterlimit:4;stroke-dasharray:none;stroke-dashoffset:0;stroke-opacity:1"
             id="rect18180"
             width="107.90078"
             height="82.509514"
             x="-866.36017"
             y="303.94714"
             transform="matrix(0.99862953,0.05233596,-0.05233596,0.99862953,0,0)"
             ry="0" />
          <rect
             ry="0"
             transform="matrix(0.99862953,0.05233596,-0.05233596,0.99862953,0,0)"
             y="295.06149"
             x="-875.57123"
             height="82.509514"
             width="107.90078"
             id="rect18148"
             style="opacity:1;fill:#474d57;fill-opacity:1;stroke:#000000;stroke-width:8.8184824;stroke-linecap:round;stroke-linejoin:round;stroke-miterlimit:4;stroke-dasharray:none;stroke-dashoffset:0;stroke-opacity:1" />
          <rect
             ry="0"
             transform="matrix(0.99862953,0.05233596,-0.05233596,0.99862953,0,0)"
             y="302.67776"
             x="-733.45801"
             height="82.509514"
             width="107.90078"
             id="rect18182"
             style="opacity:1;fill:#474d57;fill-opacity:1;stroke:#000000;stroke-width:8.8184824;stroke-linecap:round;stroke-linejoin:round;stroke-miterlimit:4;stroke-dasharray:none;stroke-dashoffset:0;stroke-opacity:1" />
          <rect
             style="opacity:1;fill:#474d57;fill-opacity:1;stroke:#000000;stroke-width:8.8184824;stroke-linecap:round;stroke-linejoin:round;stroke-miterlimit:4;stroke-dasharray:none;stroke-dashoffset:0;stroke-opacity:1"
             id="rect18150"
             width="107.90078"
             height="82.509514"
             x="-742.66907"
             y="293.79211"
             transform="matrix(0.99862953,0.05233596,-0.05233596,0.99862953,0,0)"
             ry="0" />
          <rect
             style="opacity:1;fill:#474d57;fill-opacity:1;stroke:#000000;stroke-width:8.8184824;stroke-linecap:round;stroke-linejoin:round;stroke-miterlimit:4;stroke-dasharray:none;stroke-dashoffset:0;stroke-opacity:1"
             id="rect18184"
             width="107.90078"
             height="82.509514"
             x="-603.18756"
             y="303.94714"
             transform="matrix(0.99862953,0.05233596,-0.05233596,0.99862953,0,0)"
             ry="0" />
          <rect
             ry="0"
             transform="matrix(0.99862953,0.05233596,-0.05233596,0.99862953,0,0)"
             y="295.06149"
             x="-612.39862"
             height="82.509514"
             width="107.90078"
             id="rect18152"
             style="opacity:1;fill:#474d57;fill-opacity:1;stroke:#000000;stroke-width:8.8184824;stroke-linecap:round;stroke-linejoin:round;stroke-miterlimit:4;stroke-dasharray:none;stroke-dashoffset:0;stroke-opacity:1" />
          <rect
             style="opacity:1;fill:#474d57;fill-opacity:1;stroke:#000000;stroke-width:8.8184824;stroke-linecap:round;stroke-linejoin:round;stroke-miterlimit:4;stroke-dasharray:none;stroke-dashoffset:0;stroke-opacity:1"
             id="rect18186"
             width="107.90078"
             height="82.509514"
             x="-470.28543"
             y="302.67776"
             transform="matrix(0.99862953,0.05233596,-0.05233596,0.99862953,0,0)"
             ry="0" />
          <rect
             ry="0"
             transform="matrix(0.99862953,0.05233596,-0.05233596,0.99862953,0,0)"
             y="293.79211"
             x="-479.49646"
             height="82.509514"
             width="107.90078"
             id="rect18154"
             style="opacity:1;fill:#474d57;fill-opacity:1;stroke:#000000;stroke-width:8.8184824;stroke-linecap:round;stroke-linejoin:round;stroke-miterlimit:4;stroke-dasharray:none;stroke-dashoffset:0;stroke-opacity:1" />
          <rect
             style="opacity:1;fill:#474d57;fill-opacity:1;stroke:#000000;stroke-width:8.8184824;stroke-linecap:round;stroke-linejoin:round;stroke-miterlimit:4;stroke-dasharray:none;stroke-dashoffset:0;stroke-opacity:1"
             id="rect18188"
             width="107.90078"
             height="82.509514"
             x="-338.69907"
             y="301.40839"
             transform="matrix(0.99862953,0.05233596,-0.05233596,0.99862953,0,0)"
             ry="0" />
          <rect
             ry="0"
             transform="matrix(0.99862953,0.05233596,-0.05233596,0.99862953,0,0)"
             y="292.52274"
             x="-347.91013"
             height="82.509514"
             width="107.90078"
             id="rect18156"
             style="opacity:1;fill:#474d57;fill-opacity:1;stroke:#000000;stroke-width:8.8184824;stroke-linecap:round;stroke-linejoin:round;stroke-miterlimit:4;stroke-dasharray:none;stroke-dashoffset:0;stroke-opacity:1" />
          <path
             style="fill:#000000;fill-opacity:1;fill-rule:evenodd;stroke:#000000;stroke-width:0.98223245px;stroke-linecap:butt;stroke-linejoin:miter;stroke-opacity:1"
             d="m -986.47078,257.74999 2.73169,48.44569 37.98952,-20.88919 z"
             id="path18160" />
          <path
             style="fill:#000000;fill-opacity:1;fill-rule:evenodd;stroke:#000000;stroke-width:0.98223245px;stroke-linecap:butt;stroke-linejoin:miter;stroke-opacity:1"
             d="m -860.78611,273.23468 -4.68758,39.15903 14.5211,-0.5101 6.00164,-39.09016 z"
             id="path18162" />
          <path
             id="path18164"
             d="m -830.82556,274.80488 -4.68758,39.15903 14.5211,-0.5101 6.00164,-39.09016 z"
             style="fill:#000000;fill-opacity:1;fill-rule:evenodd;stroke:#000000;stroke-width:0.98223245px;stroke-linecap:butt;stroke-linejoin:miter;stroke-opacity:1" />
          <path
             style="fill:#000000;fill-opacity:1;fill-rule:evenodd;stroke:#000000;stroke-width:0.98223245px;stroke-linecap:butt;stroke-linejoin:miter;stroke-opacity:1"
             d="m -722.67696,277.93043 -0.61253,36.83036 38.10773,1.99714 0.41323,-33.02744 z"
             id="path18166" />
          <path
             style="fill:#000000;fill-opacity:1;fill-rule:evenodd;stroke:#000000;stroke-width:0.98223245px;stroke-linecap:butt;stroke-linejoin:miter;stroke-opacity:1"
             d="m -599.4004,290.08571 -1.59442,30.4233 23.20266,-15.30855 z"
             id="path18168" />
          <path
             id="path18170"
             d="m -569.89488,292.29301 -1.59442,30.4233 23.20266,-15.30855 z"
             style="fill:#000000;fill-opacity:1;fill-rule:evenodd;stroke:#000000;stroke-width:0.98223245px;stroke-linecap:butt;stroke-linejoin:miter;stroke-opacity:1" />
          <path
             id="path18172"
             d="m -417.04782,299.6424 -1.59442,30.42331 -21.47537,-17.65003 z"
             style="fill:#000000;fill-opacity:1;fill-rule:evenodd;stroke:#000000;stroke-width:0.98223245px;stroke-linecap:butt;stroke-linejoin:miter;stroke-opacity:1" />
          <path
             style="fill:#000000;fill-opacity:1;fill-rule:evenodd;stroke:#000000;stroke-width:0.98223245px;stroke-linecap:butt;stroke-linejoin:miter;stroke-opacity:1"
             d="m -446.62244,298.75345 -1.59441,30.4233 -21.47538,-17.65003 z"
             id="path18174" />
          <ellipse
             style="opacity:1;fill:#ad2828;fill-opacity:1;stroke:none;stroke-width:8.8184824;stroke-linecap:round;stroke-linejoin:round;stroke-miterlimit:4;stroke-dasharray:none;stroke-dashoffset:0;stroke-opacity:1"
             id="path18176"
             cx="-295.93359"
             cy="333.7775"
             transform="matrix(0.99862953,0.05233596,-0.05233596,0.99862953,0,0)"
             rx="20.39588"
             ry="17.136593" />
          <path
             id="path18190"
             d="M -871.48874,-224.38815 -1147.2297,5.3496861 68.16361,70.291618 346.39106,-156.82418 Z"
             style="fill:url(#linearGradient18206);fill-opacity:1;fill-rule:evenodd;stroke:#000000;stroke-width:8.73279285;stroke-linecap:round;stroke-linejoin:round;stroke-miterlimit:4;stroke-dasharray:none;stroke-opacity:1" />
          <g
             id="g18081"
             transform="translate(-714.16171,-75.710835)">
            <path
               d="M 94.914,502.01 157.77,700.58 720.63,574.86 574.05,436.96 94.91,502.01 Z"
               style="fill:#000000;stroke:#000000;stroke-width:1px"
               id="path2847"
               transform="matrix(0.99868544,0.05233889,-0.05048989,0.9634045,50.607148,5.8629066)" />
            <path
               d="m 157.49,700.97 1.4286,65.875 551.62,-119.04 11.071,-72.857 -564.12,126.02 z"
               style="fill:#333333"
               id="path2851"
               transform="matrix(0.99868544,0.05233889,-0.05048989,0.9634045,50.607148,5.8629066)" />
            <path
               d="M 94.2,501.29 92.057,539.15 159.2,767.01 157.66,700.58 94.2,501.29 Z"
               style="fill:#333333"
               id="path2853"
               transform="matrix(0.99868544,0.05233889,-0.05048989,0.9634045,50.607148,5.8629066)" />
            <path
               d="m 151.67,546.55 31.293,77.878 103.49,-18.815 -34.71,-74.927 -100.07,15.864 z"
               style="fill:#ffffff;stroke:#000000;stroke-width:0.42096999px"
               id="path2855"
               transform="matrix(0.99868544,0.05233889,-0.05048989,0.9634045,50.607148,5.8629066)" />
            <path
               d="m 493.23,489.9 50.678,63.357 96.951,-19.134 -56.461,-60.219 -91.168,15.996 z"
               style="fill:#ffffff;stroke:#000000;stroke-width:0.42096999px"
               id="path2857"
               transform="matrix(0.99868544,0.05233889,-0.05048989,0.9634045,50.607148,5.8629066)" />
            <circle
               transform="matrix(1.2483568,0.06542361,-0.06311237,1.2042556,239.1482,-161.75821)"
               style="fill:#000000"
               id="path3669"
               cx="265.01654"
               cy="565.47131"
               r="12.32635" />
            <path
               d="m 261.58,625.48 c 0,0 -34.185,-1.8068 -58.851,-42.949 -19.47,-32.475 -0.7716,-55.523 -0.7716,-55.523"
               style="fill:none;stroke:#000000;stroke-width:32.83399963"
               id="path2859"
               transform="matrix(0.99868544,0.05233889,-0.05048989,0.9634045,50.607148,5.8629066)" />
            <path
               d="m 581.1,554.01 c 0,0 7.9039,-33.308 -24.616,-68.572 -25.669,-27.835 -53.053,-16.393 -53.053,-16.393"
               style="fill:none;stroke:#000000;stroke-width:32.83399963"
               id="path3633"
               transform="matrix(0.99868544,0.05233889,-0.05048989,0.9634045,50.607148,5.8629066)" />
            <circle
               transform="matrix(1.2483568,0.06542361,-0.06311237,1.2042556,-5.1895424,-136.60728)"
               style="fill:#000000"
               id="path3667"
               cx="265.01654"
               cy="565.47131"
               r="12.32635" />
            <path
               d="m 273.21,526.07 35.145,74.026 219.05,-42.698 -51.659,-64.142 -202.53,32.813 z"
               style="fill:#ffffff;stroke:#000000;stroke-width:0.42096999px"
               id="path2849"
               transform="matrix(0.99868544,0.05233889,-0.05048989,0.9634045,50.607148,5.8629066)" />
            <path
               d="M 293.14,535.04 473.41,505.77"
               style="fill:none;stroke:#000000;stroke-width:2.4000001"
               id="path3659"
               transform="matrix(0.99868544,0.05233889,-0.05048989,0.9634045,50.607148,5.8629066)" />
            <path
               d="M 298.91,547.37 479.19,518.09"
               style="fill:none;stroke:#000000;stroke-width:2.4000001"
               id="path3661"
               transform="matrix(0.99868544,0.05233889,-0.05048989,0.9634045,50.607148,5.8629066)" />
            <path
               d="M 305.85,558.92 486.12,529.65"
               style="fill:none;stroke:#000000;stroke-width:2.4000001"
               id="path3663"
               transform="matrix(0.99868544,0.05233889,-0.05048989,0.9634045,50.607148,5.8629066)" />
            <path
               d="M 313.17,572.02 493.44,542.74"
               style="fill:none;stroke:#000000;stroke-width:2.4000001"
               id="path3665"
               transform="matrix(0.99868544,0.05233889,-0.05048989,0.9634045,50.607148,5.8629066)" />
            <path
               d="m 178.73,753.45 -11.556,2.3112 -0.7704,-14.252 11.556,-2.3112 0.77039,14.252 z"
               style="fill:#000000;stroke:#000000;stroke-width:1px"
               id="path3675"
               transform="matrix(0.99868544,0.05233889,-0.05048989,0.9634045,50.607148,5.8629066)" />
            <path
               id="path3671"
               style="fill:#ffffff;stroke:#000000;stroke-width:1.14736795px"
               d="m 198.94896,697.56099 2.03153,38.46049 c 0,0 1.01577,3.84606 3.0473,5.38448 2.03153,1.53841 496.53643,-81.34677 496.53643,-81.34677 0,0 3.04729,1.53842 7.11035,-3.07684 4.06306,-4.61526 12.22568,-40.14904 12.22568,-40.14904 0,0 2.03152,-0.76921 -3.0473,-3.07684 -5.07882,-2.30763 -506.73163,79.18926 -506.73163,79.18926 l -6.09458,0.76922 -5.07883,3.84604 z" />
            <path
               id="path3677"
               style="fill:none;stroke:#000000;stroke-width:1.14736795px"
               d="M 213.17548,706.02789 698.7095,632.18415" />
            <path
               id="path3679"
               style="fill:none;stroke:#000000;stroke-width:1.14736795px"
               d="M 215.20595,724.48933 698.7095,646.03072" />
            <g
               id="text18033"
               style="font-style:normal;font-weight:normal;font-size:44.18380737px;line-height:125%;font-family:sans-serif;letter-spacing:0px;word-spacing:0px;fill:#2f4c85;fill-opacity:1;stroke:none;stroke-width:1px;stroke-linecap:butt;stroke-linejoin:miter;stroke-opacity:1"
               transform="matrix(0.68196621,-0.09417775,0.23317897,0.74496267,235.10088,223.74744)">
              <path
                 id="path18038"
                 style="font-style:normal;font-variant:normal;font-weight:normal;font-stretch:normal;font-family:SignPainter;-inkscape-font-specification:SignPainter;fill:#2f4c85;fill-opacity:1"
                 d="m -12.789737,434.93512 c 2.076639,2.29756 4.3741965,5.16951 7.2903278,9.14605 0.2651029,0.39765 0.4860219,0.2651 0.7069409,-0.0884 0.5743895,-0.88367 0.3976543,-2.38592 -0.220919,-3.57889 -0.92786,-1.85572 -2.518477,-3.97654 -4.1974617,-6.05318 4.9044026,-1.14878 9.67625382,-3.93236 12.0621794,-7.11359 1.6789847,-2.25337 2.297558,-4.94859 1.369698,-7.59962 -1.0604113,-3.00449 -3.0044989,-3.66725 -5.257873,-3.57888 -2.9603151,0.13255 -6.2741007,1.94408 -9.9855404,2.38592 -0.57439,0.0884 -0.706941,0.30929 -0.486022,0.75113 0.530206,0.97204 1.325514,1.6348 2.8277637,1.76735 -3.8881747,6.09736 -8.0414527,14.49229 -9.1460477,18.51301 -0.662758,2.38593 -0.220919,3.71144 0.397654,4.3742 0.309286,0.30929 0.530206,0.2651 0.706941,-0.17673 1.458065,-3.62308 2.739396,-6.40666 3.932359,-8.7484 z m 6.8043059,-14.22718 c 2.9161313,-0.79531 7.3345121,-3.09287 8.3065558,-0.61858 1.2813304,3.13705 -3.7114398,9.58789 -13.4760617,11.7529 1.1929633,-2.16501 2.2975585,-4.02073 3.4905213,-6.14155 1.1929628,-2.20919 1.6789846,-3.75563 1.6789846,-4.99277 z" />
              <path
                 id="path18040"
                 style="font-style:normal;font-variant:normal;font-weight:normal;font-stretch:normal;font-family:SignPainter;-inkscape-font-specification:SignPainter;fill:#2f4c85;fill-opacity:1"
                 d="m 4.5606912,435.99553 c 3.0928665,2.51848 6.0531818,1.3697 8.2181878,-1.28133 1.85572,-2.25337 2.209191,-4.94858 1.413882,-6.00899 -0.706941,-0.97205 -1.502249,-1.63481 -2.606844,-2.29756 -2.2091908,-1.28133 -6.7159391,1.01622 -9.5878866,6.71594 -2.87194748,5.69971 -0.92786,11.22268 4.6834836,11.13432 3.402153,-0.0442 6.804306,-2.07664 8.660026,-4.77186 0.795309,-1.14877 0.92786,-2.38592 0.751125,-2.73939 -0.176735,-0.39766 -0.530206,-0.39766 -0.751125,-0.0442 -1.899903,2.91614 -5.125321,6.45084 -8.7925774,6.2741 -2.3417418,-0.13255 -3.4021532,-2.91613 -1.9882714,-6.98104 z m 0.3976543,-0.97204 c 0.088368,-0.22092 0.220919,-0.48602 0.3534704,-0.75113 2.076639,-4.19746 5.7438951,-6.84849 6.6717551,-6.09736 0.618573,0.48602 -0.353471,2.78358 -1.767352,4.6393 -1.2813308,1.67898 -3.0928669,3.57889 -5.2578735,2.20919 z" />
              <path
                 id="path18042"
                 style="font-style:normal;font-variant:normal;font-weight:normal;font-stretch:normal;font-family:SignPainter;-inkscape-font-specification:SignPainter;fill:#2f4c85;fill-opacity:1"
                 d="m 25.561807,426.49601 c -2.20919,-1.32551 -6.671755,1.06042 -9.499518,6.62758 -2.871948,5.69971 -0.972044,11.1785 4.6393,11.09013 3.357969,-0.0442 6.84849,-2.20919 8.527474,-4.81603 0.751125,-1.19297 0.92786,-2.29756 0.795309,-2.65103 -0.176735,-0.44184 -0.57439,-0.39766 -0.795309,-0.0442 -1.811536,2.78358 -4.99277,6.31829 -8.70421,6.2741 -2.606844,-0.0442 -3.534704,-3.71143 -1.104595,-8.70421 1.988272,-4.02072 5.302057,-6.84849 6.053182,-6.22991 0.618573,0.48602 -0.706941,2.38592 -1.192963,3.97654 -0.618573,1.98827 0,3.31379 1.060411,3.84399 0.57439,0.30929 0.751125,0.17674 0.92786,-0.35347 0.883676,-2.38592 2.651029,-4.72767 1.723169,-6.58339 -0.530206,-1.01622 -1.237147,-1.72316 -2.43011,-2.43011 z" />
              <path
                 id="path18044"
                 style="font-style:normal;font-variant:normal;font-weight:normal;font-stretch:normal;font-family:SignPainter;-inkscape-font-specification:SignPainter;fill:#2f4c85;fill-opacity:1"
                 d="m 57.35413,439.79534 c 0.530206,-1.14878 0.353471,-2.34174 0.132552,-2.87195 -0.176736,-0.39765 -0.486022,-0.30928 -0.662757,0.0884 -1.413882,3.22542 -3.667256,6.18573 -5.434609,6.05318 -1.413882,-0.0884 -1.944087,-1.81153 -1.104595,-4.24164 0.795309,-2.34174 2.916131,-5.34624 4.99277,-7.68799 1.325515,-1.50224 0.220919,-3.57888 -0.574389,-4.50674 -0.353471,-0.44184 -0.751125,-0.30929 -1.325514,0.0884 -1.678985,1.14878 -3.225418,1.89991 -4.771852,2.12083 0.883677,-2.34175 1.678985,-5.56716 0.132552,-5.52298 -1.767352,0.0442 -6.097366,5.87645 -2.827764,7.29033 -0.92786,1.67898 -2.20919,2.51848 -3.446337,2.73939 0,-0.2651 0.08837,-0.48602 0.08837,-0.70694 0.220919,-3.22541 -1.060412,-3.49052 -2.120823,-4.86021 -0.92786,-1.19297 -1.634801,-1.63481 -2.960315,-1.50225 -2.651029,0.22091 -5.434608,2.69521 -7.113593,5.74389 -1.899904,3.49052 -2.562661,7.33451 -0.662757,9.94136 1.723168,2.34174 4.020726,2.43011 5.611343,1.8999 3.269602,-1.06041 6.008998,-5.61134 6.892674,-9.36697 2.43011,-0.0884 4.241646,-1.59061 5.478792,-3.57888 1.413882,0 3.35797,-0.44184 5.346241,-1.72317 -1.85572,2.165 -4.6393,5.43461 -5.522976,8.39492 -1.104595,3.62307 0.265103,6.58339 3.667256,6.76012 2.43011,0.13255 4.99277,-1.8999 6.185733,-4.55093 z m -17.629339,-7.15778 c -0.839492,-0.70694 -1.237146,-1.81153 -1.104595,-2.91613 0.176735,-1.28133 1.148779,-1.6348 1.325514,-0.17673 0.08837,0.75112 0.04418,1.81153 -0.220919,3.09286 z m -0.397654,1.28133 c -0.309287,1.1046 -0.839492,2.29756 -1.546433,3.62308 -2.209191,4.02072 -4.948587,5.61134 -6.097366,4.59511 -1.148779,-1.01623 -0.530206,-5.03695 1.369698,-8.39492 0.972044,-1.67899 2.209191,-3.13705 3.402153,-4.15328 0.04418,1.59062 1.148779,3.35797 2.871948,4.33001 z" />
              <path
                 id="path18046"
                 style="font-style:normal;font-variant:normal;font-weight:normal;font-stretch:normal;font-family:SignPainter;-inkscape-font-specification:SignPainter;fill:#2f4c85;fill-opacity:1"
                 d="m 68.568527,438.77911 c 2.209191,-4.68348 6.450836,-11.97381 8.571659,-15.77362 1.85572,-3.31378 1.988271,-5.21369 1.369698,-6.67175 -0.220919,-0.57439 -0.618573,-0.61857 -1.060411,0 -1.590617,2.25337 -4.948587,8.26237 -7.334512,12.8133 0.04418,-1.6348 -0.839493,-3.0045 -2.651029,-3.0045 -2.20919,0 -5.743895,1.98828 -9.234416,7.1136 -3.623072,5.30205 -2.827763,10.9134 1.281331,10.9134 2.076639,0 4.06491,-1.6348 5.478792,-3.40216 0,2.07664 1.192963,3.40216 3.578888,3.53471 2.43011,0.13255 5.169506,-2.20919 6.362469,-4.6393 0.574389,-1.19296 0.530205,-2.34174 0.35347,-2.7394 -0.176735,-0.35347 -0.486022,-0.35347 -0.706941,0.0442 -1.546433,3.04868 -3.932359,6.00899 -5.743895,6.09736 -1.502249,0.0884 -1.458065,-1.72317 -0.265103,-4.28583 z m -0.397654,-10.38319 c 1.281331,0.0442 0.618573,2.82776 -1.944087,7.73216 -2.076639,4.02073 -4.462565,6.62758 -6.229917,6.58339 -1.723169,-0.0442 -1.237147,-3.88817 1.148779,-7.68798 2.430109,-3.88818 5.655527,-6.67176 7.025225,-6.62757 z" />
              <path
                 id="path18048"
                 style="font-style:normal;font-variant:normal;font-weight:normal;font-stretch:normal;font-family:SignPainter;-inkscape-font-specification:SignPainter;fill:#2f4c85;fill-opacity:1"
                 d="m 77.653831,435.99553 c 3.092866,2.51848 6.053181,1.3697 8.218188,-1.28133 1.85572,-2.25337 2.20919,-4.94858 1.413882,-6.00899 -0.706941,-0.97205 -1.50225,-1.63481 -2.606845,-2.29756 -2.20919,-1.28133 -6.715938,1.01622 -9.587886,6.71594 -2.871947,5.69971 -0.92786,11.22268 4.683484,11.13432 3.402153,-0.0442 6.804306,-2.07664 8.660026,-4.77186 0.795308,-1.14877 0.92786,-2.38592 0.751125,-2.73939 -0.176736,-0.39766 -0.530206,-0.39766 -0.751125,-0.0442 -1.899904,2.91614 -5.125322,6.45084 -8.792578,6.2741 -2.341742,-0.13255 -3.402153,-2.91613 -1.988271,-6.98104 z m 0.397654,-0.97204 c 0.08837,-0.22092 0.220919,-0.48602 0.353471,-0.75113 2.076639,-4.19746 5.743895,-6.84849 6.671755,-6.09736 0.618573,0.48602 -0.353471,2.78358 -1.767353,4.6393 -1.28133,1.67898 -3.092866,3.57889 -5.257873,2.20919 z" />
              <path
                 id="path18050"
                 style="font-style:normal;font-variant:normal;font-weight:normal;font-stretch:normal;font-family:SignPainter;-inkscape-font-specification:SignPainter;fill:#2f4c85;fill-opacity:1"
                 d="m 99.980454,438.77911 c 2.209186,-4.68348 6.450836,-11.97381 8.571656,-15.77362 1.85572,-3.31378 1.98827,-5.21369 1.3697,-6.67175 -0.22092,-0.57439 -0.61857,-0.61857 -1.06041,0 -1.59062,2.25337 -4.94859,8.26237 -7.33451,12.8133 0.0442,-1.6348 -0.8395,-3.0045 -2.651032,-3.0045 -2.20919,0 -5.743894,1.98828 -9.234415,7.1136 -3.623072,5.30205 -2.827764,10.9134 1.28133,10.9134 2.076639,0 4.06491,-1.6348 5.478792,-3.40216 0,2.07664 1.192963,3.40216 3.578889,3.53471 2.430106,0.13255 5.169506,-2.20919 6.362466,-4.6393 0.57439,-1.19296 0.53021,-2.34174 0.35347,-2.7394 -0.17673,-0.35347 -0.48602,-0.35347 -0.70694,0.0442 -1.54643,3.04868 -3.93236,6.00899 -5.74389,6.09736 -1.502253,0.0884 -1.458069,-1.72317 -0.265106,-4.28583 z m -0.397655,-10.38319 c 1.281331,0.0442 0.618571,2.82776 -1.944087,7.73216 -2.076639,4.02073 -4.462565,6.62758 -6.229917,6.58339 -1.723168,-0.0442 -1.237147,-3.88817 1.148779,-7.68798 2.430109,-3.88818 5.655527,-6.67176 7.025225,-6.62757 z" />
              <path
                 id="path18052"
                 style="font-style:normal;font-variant:normal;font-weight:normal;font-stretch:normal;font-family:SignPainter;-inkscape-font-specification:SignPainter;fill:#2f4c85;fill-opacity:1"
                 d="m 127.37856,420.35447 c -4.10909,6.22991 -8.88094,15.8178 -9.89717,19.44087 -0.57439,2.12082 -0.0442,3.44634 0.57439,4.02073 0.30928,0.30928 0.5302,0.30928 0.70694,-0.13255 3.44634,-8.08564 7.20196,-14.27137 9.85299,-19.08741 1.19296,-2.16501 1.50225,-3.62307 1.45806,-4.68348 2.56266,-0.44184 5.34624,-0.88368 7.51125,-0.66276 0.57439,0.0442 0.66276,-0.30929 0.53021,-0.66276 -0.66276,-1.72317 -2.34175,-2.20919 -4.19747,-2.25337 -2.51847,-0.0884 -9.85298,1.54643 -13.78534,1.23715 -0.44184,-0.0442 -0.61858,0.17673 -0.48603,0.57439 0.48603,1.6348 2.38593,2.60684 5.03696,2.51847 0.79531,-0.0442 1.67898,-0.13255 2.69521,-0.30928 z" />
              <path
                 id="path18054"
                 style="font-style:normal;font-variant:normal;font-weight:normal;font-stretch:normal;font-family:SignPainter;-inkscape-font-specification:SignPainter;fill:#2f4c85;fill-opacity:1"
                 d="m 139.10522,440.10463 c 1.10459,-6.76013 2.56266,-12.99004 3.49052,-17.23169 0.75112,-3.40215 0.57439,-5.03695 -0.44184,-6.22991 -0.39765,-0.48603 -0.70694,-0.39766 -0.97204,0.2651 -1.59062,4.24164 -3.79981,14.53647 -4.55094,21.38496 -0.35347,3.09287 0.35347,4.68348 1.98828,5.92063 0.61857,0.44184 0.92786,0.2651 1.23714,-0.22092 5.16951,-8.04145 12.19473,-16.70148 15.33178,-20.85475 2.16501,-2.87195 2.7394,-4.72767 2.43011,-6.27411 -0.13255,-0.61857 -0.57439,-0.70694 -1.01623,-0.22091 -3.93235,4.10909 -13.25514,16.348 -17.49678,23.4616 z" />
              <path
                 id="path18056"
                 style="font-style:normal;font-variant:normal;font-weight:normal;font-stretch:normal;font-family:SignPainter;-inkscape-font-specification:SignPainter;fill:#2f4c85;fill-opacity:1"
                 d="m 163.93858,436.30482 c -0.0442,-0.35347 -0.0442,-0.70694 -0.0884,-1.06041 -0.0442,-0.70694 -0.39766,-0.88368 -0.92786,-0.44184 -1.50225,1.23715 -1.6348,4.15328 -0.57439,6.14155 1.50225,2.7394 3.97654,3.40215 6.5392,3.31379 3.13705,-0.13256 6.14155,-1.81154 7.82053,-4.86022 0.75113,-1.3697 0.79531,-2.51848 0.61858,-2.91613 -0.17674,-0.35348 -0.61858,-0.48603 -0.83949,0 -1.1046,2.38592 -2.96032,5.03695 -5.92063,6.14154 1.59061,-1.06041 1.8999,-2.91613 1.98827,-4.6393 0.13255,-3.04868 -0.70694,-6.49502 -0.39766,-10.55993 0.17674,-0.30928 0.30929,-0.57438 0.48602,-0.83949 0.57439,-1.01623 0.79531,-1.50225 0.35347,-1.94409 -0.39765,-0.39765 -1.41388,-0.22091 -2.38592,0.66276 -0.92786,0.83949 -1.3697,1.67899 -1.59062,3.40216 -1.28133,2.25337 -3.2696,5.12532 -5.08114,7.59961 z m 4.99277,-4.77185 c 0.17674,3.5347 0.8395,10.47156 -1.19296,11.09013 -1.45806,0.44184 -2.73939,-1.36969 -3.40215,-3.93235 1.67898,-2.38593 3.31378,-4.81604 4.59511,-7.15778 z" />
              <path
                 id="path18058"
                 style="font-style:normal;font-variant:normal;font-weight:normal;font-stretch:normal;font-family:SignPainter;-inkscape-font-specification:SignPainter;fill:#2f4c85;fill-opacity:1"
                 d="m 193.22072,439.53024 c 0.66275,-1.32552 0.66275,-2.25338 0.44183,-2.7394 -0.17673,-0.35347 -0.61857,-0.35347 -0.7953,0.0442 -1.3697,2.82776 -3.79981,6.00899 -5.61135,6.09736 -1.6348,0.0884 -1.85572,-1.98827 -0.75112,-4.55093 1.01623,-2.29756 3.13705,-5.52298 4.10909,-7.46706 1.14878,-2.25338 -0.22092,-4.46257 -1.72317,-4.6393 -1.19296,-0.13256 -3.49052,1.32551 -5.30205,3.09286 1.8999,-2.96031 4.24164,-6.5392 5.30205,-8.30655 1.67899,-2.78358 1.81154,-4.99277 1.23715,-6.2741 -0.22092,-0.53021 -0.66276,-0.57439 -1.06041,-0.0442 -3.57889,4.46257 -12.76912,20.01527 -14.31556,24.43365 -0.92786,2.65103 -0.5302,3.88817 0.17674,4.68348 0.2651,0.30929 0.57439,0.22092 0.75112,-0.17673 1.06042,-2.69522 2.69522,-5.78808 4.28583,-8.39493 2.56267,-4.19746 7.3787,-7.20196 7.99727,-6.84849 0.70694,0.39766 -3.13705,4.99277 -4.59511,9.2786 -1.32552,3.84399 -0.39766,6.53921 3.31378,6.53921 2.60685,0 5.30206,-2.2092 6.53921,-4.72767 z" />
              <path
                 id="path18060"
                 style="font-style:normal;font-variant:normal;font-weight:normal;font-stretch:normal;font-family:SignPainter;-inkscape-font-specification:SignPainter;fill:#2f4c85;fill-opacity:1"
                 d="m 231.43764,427.64479 c 0.22092,-1.10459 -0.0884,-1.67898 -0.70694,-1.54643 -0.88368,0.17674 -3.84399,3.04868 -4.6393,9.67625 -2.29756,4.15328 -4.94859,7.1136 -6.58339,7.1136 -1.23714,0 -1.32551,-1.59062 -0.13255,-4.06491 1.1046,-2.29756 3.22542,-5.69971 4.19746,-7.6438 1.1046,-2.20919 0.75113,-4.15328 0.0884,-4.9044 -0.35347,-0.44184 -0.70694,-0.30929 -1.10459,0.2651 -1.3697,1.8999 -2.65103,4.9044 -5.4788,9.41115 -2.38592,3.84399 -4.02072,6.71594 -5.74389,6.76012 -0.97204,0.0442 -1.01623,-1.45806 -0.13255,-3.62307 0.88367,-2.12082 1.94409,-4.06491 3.5347,-6.67176 1.59062,-2.60684 1.81154,-4.50674 0.79531,-5.92063 -0.30929,-0.39765 -0.75112,-0.48602 -1.10459,0.0442 -0.48603,0.70694 -1.14878,1.67898 -1.59062,2.38592 -1.54643,2.51848 -3.93236,4.50675 -6.49502,4.59512 0.0442,-0.30929 0.0884,-0.61857 0.0884,-0.88368 0.22092,-3.2696 -1.1046,-3.5347 -2.07664,-4.86021 -0.92786,-1.28134 -1.67899,-1.59062 -3.0045,-1.50225 -2.65103,0.17673 -5.39043,2.65102 -7.06941,5.69971 -1.94409,3.5347 -2.65103,7.33451 -0.66276,9.94135 1.76736,2.34175 3.93236,2.38593 5.52298,1.89991 3.22542,-1.01623 5.92063,-5.39043 6.89267,-9.10187 1.28133,0.0442 2.65103,-0.17673 3.97655,-0.83949 -0.70695,1.45807 -1.23715,2.65103 -1.63481,3.84399 -1.10459,3.22542 -0.61857,6.05318 2.07664,6.2741 2.12083,0.17674 3.93236,-1.59061 5.39043,-3.35797 -0.17674,1.85572 0.92786,3.53471 2.78358,3.57889 2.87195,0.0442 5.96481,-3.31378 9.01349,-8.26237 2.82777,-4.59512 3.49053,-6.5392 3.79981,-8.30656 z m -27.87998,4.99277 c -0.83949,-0.75112 -1.23715,-1.85572 -1.06041,-3.00449 0.17673,-1.28134 1.19296,-1.54644 1.32551,-0.17674 0.0884,0.79531 0.0884,1.8999 -0.2651,3.18123 z m -0.30929,1.23715 c -0.39765,1.1046 -0.92786,2.29756 -1.6348,3.62307 -2.12082,4.02073 -4.86022,5.56716 -6.05318,4.55093 -1.14878,-0.97204 -0.48602,-4.99277 1.3697,-8.30655 0.92786,-1.67899 2.20919,-3.22542 3.44634,-4.19746 0,1.81153 1.36969,3.5347 2.87194,4.33001 z" />
              <path
                 id="path18062"
                 style="font-style:normal;font-variant:normal;font-weight:normal;font-stretch:normal;font-family:SignPainter;-inkscape-font-specification:SignPainter;fill:#2f4c85;fill-opacity:1"
                 d="m 232.11282,436.30482 c -0.0442,-0.35347 -0.0442,-0.70694 -0.0884,-1.06041 -0.0442,-0.70694 -0.39766,-0.88368 -0.92786,-0.44184 -1.50225,1.23715 -1.6348,4.15328 -0.57439,6.14155 1.50225,2.7394 3.97654,3.40215 6.5392,3.31379 3.13705,-0.13256 6.14155,-1.81154 7.82053,-4.86022 0.75113,-1.3697 0.79531,-2.51848 0.61858,-2.91613 -0.17674,-0.35348 -0.61858,-0.48603 -0.83949,0 -1.1046,2.38592 -2.96032,5.03695 -5.92063,6.14154 1.59061,-1.06041 1.8999,-2.91613 1.98827,-4.6393 0.13255,-3.04868 -0.70694,-6.49502 -0.39766,-10.55993 0.17674,-0.30928 0.30929,-0.57438 0.48602,-0.83949 0.57439,-1.01623 0.79531,-1.50225 0.35348,-1.94409 -0.39766,-0.39765 -1.41389,-0.22091 -2.38593,0.66276 -0.92786,0.83949 -1.3697,1.67899 -1.59062,3.40216 -1.28133,2.25337 -3.2696,5.12532 -5.08114,7.59961 z m 4.99277,-4.77185 c 0.17674,3.5347 0.8395,10.47156 -1.19296,11.09013 -1.45806,0.44184 -2.73939,-1.36969 -3.40215,-3.93235 1.67898,-2.38593 3.31378,-4.81604 4.59511,-7.15778 z" />
            </g>
          </g>
          <g
             transform="matrix(0.00376033,0.96486969,-1.036424,-0.00376033,969.19668,-167.73266)"
             id="g18218">
            <path
               transform="matrix(0.99868544,0.05233889,-0.05048989,0.9634045,50.607148,5.8629066)"
               id="path18220"
               style="fill:#000000;stroke:#000000;stroke-width:1px"
               d="M 94.914,502.01 157.77,700.58 720.63,574.86 574.05,436.96 94.91,502.01 Z" />
            <path
               transform="matrix(0.99868544,0.05233889,-0.05048989,0.9634045,50.607148,5.8629066)"
               id="path18222"
               style="fill:#333333"
               d="m 157.49,700.97 1.4286,65.875 551.62,-119.04 11.071,-72.857 -564.12,126.02 z" />
            <path
               transform="matrix(0.99868544,0.05233889,-0.05048989,0.9634045,50.607148,5.8629066)"
               id="path18224"
               style="fill:#333333"
               d="M 94.2,501.29 92.057,539.15 159.2,767.01 157.66,700.58 94.2,501.29 Z" />
            <path
               transform="matrix(0.99868544,0.05233889,-0.05048989,0.9634045,50.607148,5.8629066)"
               id="path18226"
               style="fill:#ffffff;stroke:#000000;stroke-width:0.42096999px"
               d="m 151.67,546.55 31.293,77.878 103.49,-18.815 -34.71,-74.927 -100.07,15.864 z" />
            <path
               transform="matrix(0.99868544,0.05233889,-0.05048989,0.9634045,50.607148,5.8629066)"
               id="path18228"
               style="fill:#ffffff;stroke:#000000;stroke-width:0.42096999px"
               d="m 493.23,489.9 50.678,63.357 96.951,-19.134 -56.461,-60.219 -91.168,15.996 z" />
            <circle
               r="12.32635"
               cy="565.47131"
               cx="265.01654"
               id="circle18230"
               style="fill:#000000"
               transform="matrix(1.2483568,0.06542361,-0.06311237,1.2042556,239.1482,-161.75821)" />
            <path
               transform="matrix(0.99868544,0.05233889,-0.05048989,0.9634045,50.607148,5.8629066)"
               id="path18232"
               style="fill:none;stroke:#000000;stroke-width:22;stroke-miterlimit:4;stroke-dasharray:none"
               d="m 261.58,625.48 c 0,0 -34.185,-1.8068 -58.851,-42.949 -19.47,-32.475 -0.7716,-55.523 -0.7716,-55.523" />
            <path
               transform="matrix(0.99868544,0.05233889,-0.05048989,0.9634045,50.607148,5.8629066)"
               id="path18234"
               style="fill:none;stroke:#000000;stroke-width:40;stroke-miterlimit:4;stroke-dasharray:none"
               d="m 581.1,554.01 c 0,0 7.9039,-33.308 -24.616,-68.572 -25.669,-27.835 -53.053,-16.393 -53.053,-16.393" />
            <circle
               r="12.32635"
               cy="565.47131"
               cx="265.01654"
               id="circle18236"
               style="fill:#000000"
               transform="matrix(1.2483568,0.06542361,-0.06311237,1.2042556,-5.1895424,-136.60728)" />
            <path
               transform="matrix(0.99868544,0.05233889,-0.05048989,0.9634045,50.607148,5.8629066)"
               id="path18238"
               style="fill:#ffffff;stroke:#000000;stroke-width:0.42096999px"
               d="m 273.21,526.07 35.145,74.026 219.05,-42.698 -51.659,-64.142 -202.53,32.813 z" />
            <path
               transform="matrix(0.99868544,0.05233889,-0.05048989,0.9634045,50.607148,5.8629066)"
               id="path18240"
               style="fill:none;stroke:#000000;stroke-width:2.4000001"
               d="M 293.14,535.04 473.41,505.77" />
            <path
               transform="matrix(0.99868544,0.05233889,-0.05048989,0.9634045,50.607148,5.8629066)"
               id="path18242"
               style="fill:none;stroke:#000000;stroke-width:2.4000001"
               d="M 298.91,547.37 479.19,518.09" />
            <path
               transform="matrix(0.99868544,0.05233889,-0.05048989,0.9634045,50.607148,5.8629066)"
               id="path18244"
               style="fill:none;stroke:#000000;stroke-width:2.4000001"
               d="M 305.85,558.92 486.12,529.65" />
            <path
               transform="matrix(0.99868544,0.05233889,-0.05048989,0.9634045,50.607148,5.8629066)"
               id="path18246"
               style="fill:none;stroke:#000000;stroke-width:2.4000001"
               d="M 313.17,572.02 493.44,542.74" />
            <path
               transform="matrix(0.99868544,0.05233889,-0.05048989,0.9634045,50.607148,5.8629066)"
               id="path18248"
               style="fill:#000000;stroke:#000000;stroke-width:1px"
               d="m 178.73,753.45 -11.556,2.3112 -0.7704,-14.252 11.556,-2.3112 0.77039,14.252 z" />
            <path
               d="m 198.94896,697.56099 2.03153,38.46049 c 0,0 1.01577,3.84606 3.0473,5.38448 2.03153,1.53841 496.53643,-81.34677 496.53643,-81.34677 0,0 3.04729,1.53842 7.11035,-3.07684 4.06306,-4.61526 12.22568,-40.14904 12.22568,-40.14904 0,0 2.03152,-0.76921 -3.0473,-3.07684 -5.07882,-2.30763 -506.73163,79.18926 -506.73163,79.18926 l -6.09458,0.76922 -5.07883,3.84604 z"
               style="fill:#ffffff;stroke:#000000;stroke-width:1.14736795px"
               id="path18250" />
            <path
               d="M 213.17548,706.02789 698.7095,632.18415"
               style="fill:none;stroke:#000000;stroke-width:1.14736795px"
               id="path18252" />
            <path
               d="M 215.20595,724.48933 698.7095,646.03072"
               style="fill:none;stroke:#000000;stroke-width:1.14736795px"
               id="path18254" />
          </g>
        </g>
      </g>
    </g>
  </g>
  <metadata
     id="metadata17484">
    <rdf:RDF>
      <cc:Work>
        <dc:format>image/svg+xml</dc:format>
        <dc:type
           rdf:resource="http://purl.org/dc/dcmitype/StillImage" />
        <cc:license
           rdf:resource="http://creativecommons.org/publicdomain/zero/1.0/" />
        <dc:publisher>
          <cc:Agent
             rdf:about="http://openclipart.org/">
            <dc:title>Openclipart</dc:title>
          </cc:Agent>
        </dc:publisher>
        <dc:title></dc:title>
        <dc:date>2010-08-01T15:17:28</dc:date>
        <dc:description>VDO Tape VHS,Bujung</dc:description>
        <dc:source>https://openclipart.org/detail/75853/vdo-tape-by-aungkarns</dc:source>
        <dc:creator>
          <cc:Agent>
            <dc:title>aungkarns</dc:title>
          </cc:Agent>
        </dc:creator>
        <dc:subject>
          <rdf:Bag>
            <rdf:li>Bujung</rdf:li>
            <rdf:li>VDO Tape VHS</rdf:li>
          </rdf:Bag>
        </dc:subject>
      </cc:Work>
      <cc:License
         rdf:about="http://creativecommons.org/publicdomain/zero/1.0/">
        <cc:permits
           rdf:resource="http://creativecommons.org/ns#Reproduction" />
        <cc:permits
           rdf:resource="http://creativecommons.org/ns#Distribution" />
        <cc:permits
           rdf:resource="http://creativecommons.org/ns#DerivativeWorks" />
      </cc:License>
    </rdf:RDF>
  </metadata>
</svg>
